<svg xmlns="http://www.w3.org/2000/svg" width="375" viewBox="0 0 375 375" height="375" version="1.0"><defs><clipPath id="a"><path d="M 73.269531 8.199219 L 375 8.199219 L 375 357.699219 L 73.269531 357.699219 Z M 73.269531 8.199219"/></clipPath><clipPath id="b"><path d="M 0 83.515625 L 375 83.515625 L 375 259.015625 L 0 259.015625 Z M 0 83.515625"/></clipPath></defs><g clip-path="url(#a)"><path fill="#B685FF" d="M 365.046875 264.195312 L 224.394531 345.4375 L 83.738281 264.195312 L 83.738281 101.707031 L 224.394531 20.394531 L 365.046875 101.707031 L 365.046875 264.195312 M 375.519531 270.269531 L 375.519531 95.628906 L 224.394531 8.308594 L 73.269531 95.628906 L 73.269531 270.269531 L 224.394531 357.59375 Z M 375.519531 270.269531"/></g><g clip-path="url(#b)"><path fill="#3A3D50" d="M 447.640625 232.296875 C 447.652344 232.46875 447.640625 232.636719 447.605469 232.808594 C 447.597656 232.851562 447.597656 232.894531 447.585938 232.933594 C 447.535156 233.109375 447.46875 233.28125 447.371094 233.441406 C 447.355469 233.46875 447.332031 233.484375 447.3125 233.511719 C 447.300781 233.527344 447.300781 233.546875 447.289062 233.566406 L 442.132812 240.671875 C 441.847656 241.066406 441.425781 241.328125 440.957031 241.425781 L 444.472656 248.851562 C 444.480469 248.871094 444.484375 248.894531 444.492188 248.917969 C 444.519531 248.976562 444.53125 249.039062 444.554688 249.101562 C 444.566406 249.136719 444.589844 249.167969 444.597656 249.203125 C 444.601562 249.222656 444.597656 249.238281 444.601562 249.257812 C 444.617188 249.308594 444.621094 249.363281 444.628906 249.417969 C 444.632812 249.445312 444.644531 249.46875 444.648438 249.496094 C 444.652344 249.542969 444.640625 249.582031 444.644531 249.628906 C 444.644531 249.695312 444.65625 249.757812 444.648438 249.824219 C 444.648438 249.859375 444.632812 249.894531 444.628906 249.929688 C 444.628906 249.933594 444.628906 249.933594 444.628906 249.9375 C 444.621094 250.007812 444.605469 250.078125 444.589844 250.148438 C 444.570312 250.226562 444.546875 250.304688 444.515625 250.378906 C 444.503906 250.417969 444.488281 250.457031 444.472656 250.496094 C 444.449219 250.539062 444.425781 250.582031 444.402344 250.628906 C 444.382812 250.660156 444.375 250.695312 444.351562 250.726562 C 444.316406 250.785156 444.269531 250.828125 444.226562 250.878906 C 444.21875 250.890625 444.214844 250.902344 444.203125 250.910156 C 444.1875 250.933594 444.175781 250.964844 444.152344 250.984375 C 444.136719 251.003906 444.113281 251.019531 444.09375 251.039062 C 444.015625 251.117188 443.925781 251.1875 443.832031 251.253906 C 443.792969 251.28125 443.765625 251.316406 443.726562 251.339844 L 432.007812 258.480469 C 432 258.484375 431.988281 258.484375 431.980469 258.492188 C 431.878906 258.550781 431.765625 258.59375 431.65625 258.632812 C 431.605469 258.648438 431.5625 258.675781 431.511719 258.691406 C 431.34375 258.738281 431.175781 258.761719 431 258.761719 L 66.160156 259.058594 C 66.15625 259.058594 66.15625 259.058594 66.15625 259.058594 C 65.960938 259.058594 65.773438 259.03125 65.59375 258.972656 C 65.527344 258.957031 65.476562 258.917969 65.414062 258.890625 C 65.300781 258.84375 65.1875 258.800781 65.085938 258.734375 C 65.023438 258.691406 64.972656 258.628906 64.910156 258.578125 C 64.828125 258.507812 64.742188 258.445312 64.671875 258.363281 C 64.617188 258.296875 64.582031 258.21875 64.535156 258.148438 C 64.480469 258.0625 64.417969 257.980469 64.375 257.886719 L 1.003906 110.792969 C 0.902344 110.558594 0.867188 110.316406 0.859375 110.070312 C 0.859375 110.023438 0.855469 109.976562 0.855469 109.933594 C 0.867188 109.695312 0.921875 109.464844 1.019531 109.246094 C 1.027344 109.226562 1.023438 109.207031 1.03125 109.1875 L 7.835938 94.867188 C 7.921875 94.695312 8.027344 94.535156 8.15625 94.390625 L 13.070312 89.007812 C 13.097656 88.976562 13.132812 88.960938 13.164062 88.929688 C 13.242188 88.855469 13.324219 88.789062 13.414062 88.726562 C 13.476562 88.683594 13.542969 88.640625 13.609375 88.605469 C 13.699219 88.558594 13.789062 88.527344 13.878906 88.496094 C 13.953125 88.46875 14.027344 88.441406 14.105469 88.421875 C 14.230469 88.398438 14.363281 88.386719 14.492188 88.386719 C 14.535156 88.386719 14.578125 88.378906 14.621094 88.378906 C 14.625 88.378906 14.628906 88.378906 14.632812 88.378906 L 28.882812 89.351562 L 33.085938 84.222656 C 33.136719 84.164062 33.195312 84.121094 33.25 84.066406 C 33.300781 84.019531 33.34375 83.964844 33.398438 83.925781 C 33.480469 83.859375 33.570312 83.8125 33.660156 83.761719 C 33.710938 83.738281 33.753906 83.703125 33.804688 83.683594 C 33.910156 83.636719 34.023438 83.605469 34.136719 83.578125 C 34.179688 83.566406 34.21875 83.550781 34.257812 83.542969 C 34.367188 83.527344 34.480469 83.527344 34.589844 83.527344 C 34.640625 83.527344 34.6875 83.515625 34.734375 83.519531 L 34.777344 83.519531 L 386.558594 110.75 C 387.242188 110.800781 387.851562 111.214844 388.152344 111.828125 L 398.457031 132.851562 C 398.457031 132.855469 398.457031 132.859375 398.457031 132.863281 C 398.464844 132.878906 398.46875 132.890625 398.472656 132.902344 C 398.476562 132.914062 398.488281 132.925781 398.492188 132.9375 C 398.515625 132.992188 398.523438 133.050781 398.539062 133.109375 C 398.574219 133.203125 398.605469 133.300781 398.621094 133.398438 C 398.628906 133.441406 398.632812 133.480469 398.636719 133.523438 C 398.640625 133.570312 398.636719 133.613281 398.636719 133.660156 C 398.640625 133.746094 398.644531 133.828125 398.636719 133.910156 C 398.628906 133.988281 398.609375 134.0625 398.589844 134.136719 C 398.585938 134.164062 398.582031 134.191406 398.574219 134.222656 C 398.566406 134.246094 398.566406 134.273438 398.558594 134.300781 C 398.546875 134.339844 398.527344 134.375 398.511719 134.410156 C 398.484375 134.480469 398.449219 134.546875 398.414062 134.613281 C 398.410156 134.625 398.40625 134.632812 398.398438 134.640625 C 398.832031 134.816406 399.199219 135.140625 399.410156 135.570312 L 409.714844 156.59375 C 409.71875 156.597656 409.71875 156.601562 409.71875 156.605469 C 409.722656 156.617188 409.726562 156.628906 409.730469 156.636719 C 409.734375 156.648438 409.742188 156.65625 409.75 156.664062 C 409.773438 156.722656 409.78125 156.785156 409.800781 156.84375 C 409.832031 156.941406 409.863281 157.035156 409.878906 157.132812 C 409.886719 157.175781 409.890625 157.21875 409.894531 157.261719 C 409.898438 157.308594 409.898438 157.351562 409.898438 157.398438 C 409.902344 157.480469 409.90625 157.5625 409.894531 157.644531 C 409.886719 157.722656 409.867188 157.792969 409.851562 157.867188 C 409.84375 157.902344 409.84375 157.9375 409.832031 157.972656 C 409.828125 157.992188 409.828125 158.019531 409.820312 158.039062 C 409.808594 158.078125 409.789062 158.109375 409.777344 158.144531 C 409.75 158.214844 409.710938 158.28125 409.675781 158.347656 C 409.648438 158.40625 409.628906 158.464844 409.59375 158.519531 C 409.570312 158.554688 409.542969 158.578125 409.519531 158.609375 C 409.5 158.632812 409.492188 158.660156 409.472656 158.683594 L 408.445312 159.9375 L 410.554688 160.050781 C 411.253906 160.085938 411.878906 160.5 412.191406 161.128906 L 422.492188 182.011719 C 422.496094 182.015625 422.496094 182.019531 422.496094 182.023438 C 422.503906 182.03125 422.503906 182.042969 422.507812 182.054688 C 422.511719 182.0625 422.519531 182.070312 422.523438 182.078125 C 422.546875 182.128906 422.550781 182.179688 422.566406 182.230469 C 422.605469 182.335938 422.640625 182.441406 422.660156 182.550781 C 422.667969 182.59375 422.671875 182.632812 422.675781 182.675781 C 422.679688 182.722656 422.675781 182.765625 422.679688 182.8125 C 422.679688 182.898438 422.683594 182.976562 422.675781 183.0625 C 422.667969 183.136719 422.652344 183.207031 422.632812 183.28125 C 422.625 183.320312 422.625 183.355469 422.613281 183.394531 C 422.609375 183.414062 422.609375 183.4375 422.601562 183.457031 C 422.589844 183.492188 422.570312 183.523438 422.558594 183.558594 C 422.53125 183.628906 422.496094 183.699219 422.460938 183.765625 C 422.429688 183.820312 422.414062 183.878906 422.378906 183.929688 C 422.359375 183.964844 422.324219 183.992188 422.300781 184.023438 C 422.28125 184.050781 422.273438 184.078125 422.253906 184.105469 L 421.898438 184.535156 L 422.710938 184.566406 C 423.421875 184.59375 424.0625 185.011719 424.378906 185.652344 L 434.679688 206.675781 C 434.679688 206.679688 434.679688 206.683594 434.683594 206.683594 C 434.6875 206.695312 434.691406 206.703125 434.695312 206.710938 C 434.695312 206.714844 434.699219 206.71875 434.703125 206.722656 C 434.726562 206.773438 434.730469 206.828125 434.75 206.878906 C 434.785156 206.984375 434.824219 207.09375 434.84375 207.203125 C 434.851562 207.246094 434.855469 207.289062 434.859375 207.332031 C 434.863281 207.382812 434.863281 207.429688 434.863281 207.480469 C 434.867188 207.558594 434.867188 207.636719 434.863281 207.714844 C 434.855469 207.789062 434.835938 207.859375 434.820312 207.933594 C 434.8125 207.980469 434.808594 208.023438 434.796875 208.070312 C 434.792969 208.085938 434.792969 208.101562 434.785156 208.117188 C 434.777344 208.148438 434.757812 208.179688 434.746094 208.214844 C 434.71875 208.285156 434.683594 208.351562 434.644531 208.421875 C 434.617188 208.472656 434.601562 208.53125 434.570312 208.582031 C 434.546875 208.617188 434.515625 208.644531 434.488281 208.675781 C 434.46875 208.703125 434.460938 208.738281 434.4375 208.761719 L 433.808594 209.53125 L 434.867188 209.558594 C 435.574219 209.574219 436.214844 209.972656 436.542969 210.601562 L 447.4375 231.519531 L 447.4375 231.527344 C 447.539062 231.714844 447.589844 231.917969 447.625 232.125 C 447.632812 232.183594 447.636719 232.238281 447.640625 232.296875 Z M 447.640625 232.296875"/></g><path fill="#596593" d="M 439.640625 247.714844 L 437.378906 247.695312 L 431.683594 247.648438 L 428.386719 247.621094 L 423.988281 247.582031 L 77.882812 244.679688 L 25.8125 113.539062 L 25.015625 111.539062 L 24.222656 109.539062 L 17.917969 93.660156 L 17.441406 92.464844 L 20.90625 92.699219 L 27.464844 93.148438 L 28.378906 95.480469 L 29.328125 97.90625 L 34.140625 110.214844 L 35.703125 114.214844 L 37.148438 117.90625 C 37.152344 117.917969 37.160156 117.925781 37.164062 117.933594 C 37.167969 117.945312 37.167969 117.957031 37.171875 117.96875 C 37.210938 118.054688 37.269531 118.125 37.316406 118.203125 C 37.359375 118.273438 37.390625 118.34375 37.4375 118.40625 C 37.503906 118.488281 37.585938 118.550781 37.660156 118.621094 C 37.714844 118.671875 37.761719 118.730469 37.824219 118.773438 C 37.917969 118.839844 38.023438 118.886719 38.125 118.933594 C 38.183594 118.964844 38.234375 119 38.296875 119.023438 C 38.425781 119.070312 38.5625 119.089844 38.699219 119.109375 C 38.742188 119.113281 38.78125 119.132812 38.828125 119.136719 L 39.496094 119.179688 L 39.132812 119.625 C 38.683594 120.167969 38.566406 120.910156 38.824219 121.566406 L 48.640625 146.664062 C 48.644531 146.675781 48.652344 146.6875 48.660156 146.699219 C 48.664062 146.714844 48.664062 146.726562 48.671875 146.742188 C 48.707031 146.828125 48.769531 146.898438 48.816406 146.980469 C 48.859375 147.042969 48.890625 147.113281 48.9375 147.171875 C 49.003906 147.257812 49.089844 147.324219 49.167969 147.394531 C 49.222656 147.441406 49.269531 147.5 49.328125 147.542969 C 49.425781 147.609375 49.53125 147.652344 49.636719 147.703125 C 49.695312 147.730469 49.746094 147.769531 49.808594 147.789062 C 49.980469 147.851562 50.160156 147.886719 50.34375 147.898438 L 50.769531 147.917969 L 50.226562 148.582031 C 49.78125 149.125 49.664062 149.867188 49.917969 150.523438 L 59.734375 175.621094 C 59.738281 175.636719 59.75 175.648438 59.757812 175.664062 C 59.765625 175.679688 59.765625 175.695312 59.769531 175.707031 C 59.808594 175.792969 59.867188 175.859375 59.914062 175.933594 C 59.957031 176.003906 59.988281 176.074219 60.039062 176.136719 C 60.109375 176.222656 60.191406 176.289062 60.269531 176.359375 C 60.328125 176.40625 60.375 176.464844 60.4375 176.507812 C 60.53125 176.574219 60.644531 176.621094 60.75 176.667969 C 60.808594 176.695312 60.859375 176.730469 60.917969 176.753906 C 61.089844 176.8125 61.273438 176.847656 61.460938 176.855469 L 63.121094 176.921875 L 61.808594 178.523438 C 61.363281 179.066406 61.246094 179.808594 61.503906 180.460938 L 71.316406 205.5625 C 71.324219 205.578125 71.335938 205.59375 71.34375 205.609375 C 71.351562 205.625 71.351562 205.644531 71.359375 205.660156 C 71.398438 205.742188 71.453125 205.808594 71.5 205.878906 C 71.542969 205.949219 71.582031 206.023438 71.632812 206.085938 C 71.699219 206.171875 71.785156 206.234375 71.863281 206.304688 C 71.921875 206.355469 71.972656 206.414062 72.035156 206.457031 C 72.132812 206.523438 72.242188 206.566406 72.351562 206.617188 C 72.410156 206.640625 72.460938 206.679688 72.523438 206.699219 C 72.699219 206.757812 72.882812 206.789062 73.074219 206.796875 L 75.921875 206.871094 L 74.421875 208.9375 C 74.035156 209.46875 73.945312 210.164062 74.183594 210.78125 L 83.894531 235.773438 C 83.917969 235.839844 83.964844 235.890625 83.996094 235.953125 C 84.03125 236.019531 84.066406 236.082031 84.105469 236.144531 C 84.222656 236.3125 84.355469 236.464844 84.515625 236.589844 C 84.535156 236.601562 84.542969 236.625 84.5625 236.640625 C 84.566406 236.644531 84.574219 236.644531 84.578125 236.648438 C 84.742188 236.765625 84.917969 236.855469 85.109375 236.917969 C 85.152344 236.933594 85.199219 236.929688 85.246094 236.941406 C 85.386719 236.976562 85.527344 237.007812 85.675781 237.011719 L 185.757812 238.269531 L 185.761719 238.269531 L 378.6875 240.695312 L 414.203125 241.140625 L 419.964844 241.214844 L 420.667969 241.222656 L 420.789062 241.226562 C 420.789062 241.226562 420.792969 241.226562 420.792969 241.226562 L 422.871094 241.25 L 425.074219 241.277344 L 425.726562 241.285156 L 436.664062 241.425781 L 438.921875 246.195312 Z M 439.640625 247.714844"/><path fill="#4F87FF" d="M 435.335938 251.5625 L 431.542969 253.667969 L 429.847656 254.609375 L 429.363281 254.878906 L 193.699219 255.070312 L 70.816406 255.171875 L 77.363281 248.558594 L 426.027344 251.484375 L 428.222656 251.503906 L 430.421875 251.519531 Z M 435.335938 251.5625"/><path fill="#FFF6EF" d="M 38.742188 101.410156 L 42.179688 110.203125 L 41.742188 110.734375 L 40.234375 112.578125 L 39.554688 113.40625 L 39.203125 112.507812 L 38.421875 110.507812 L 34.203125 99.71875 L 33.253906 97.296875 L 32.304688 94.871094 L 31.746094 93.4375 L 31.359375 92.449219 L 32.125 91.519531 L 33.636719 89.675781 L 33.988281 89.246094 L 34.167969 89.710938 L 35.730469 93.710938 L 36.847656 96.558594 L 37.792969 98.984375 Z M 46.105469 119.613281 L 45.480469 118.007812 L 44.261719 119.492188 L 44.257812 119.492188 L 42.851562 121.210938 L 51.046875 142.164062 L 53.671875 138.960938 L 46.109375 119.613281 Z M 56.574219 146.964844 L 55.585938 148.167969 L 53.949219 150.167969 L 62.140625 171.121094 L 64.769531 167.917969 L 57.074219 148.242188 Z M 68.160156 176.902344 L 67.976562 177.125 L 65.53125 180.105469 L 73.726562 201.0625 L 76.351562 197.859375 L 68.25 177.136719 Z M 437.566406 234.261719 L 435.40625 234.238281 L 433.246094 234.210938 L 428.140625 234.144531 L 425.15625 237.394531 L 434.8125 237.515625 L 439.132812 237.570312 L 439.582031 237.578125 L 441.945312 234.320312 Z M 419.101562 234.03125 L 416.898438 234.003906 L 406.855469 233.878906 L 406.589844 234.164062 L 405.171875 235.710938 L 403.871094 237.128906 L 409.164062 237.195312 L 414.925781 237.265625 L 418.628906 237.3125 L 419.949219 237.328125 L 420.507812 236.722656 L 421.902344 235.203125 L 422.933594 234.078125 L 421.304688 234.058594 Z M 156.21875 234.011719 L 184.835938 234.375 L 187.429688 231.117188 L 158.808594 230.757812 Z M 189.75 234.433594 L 335.507812 236.269531 L 338.492188 233.019531 L 192.339844 231.179688 Z M 361.523438 236.59375 L 377.847656 236.800781 L 380.832031 233.550781 L 364.507812 233.34375 Z M 122.683594 233.59375 L 151.304688 233.953125 L 153.894531 230.695312 L 125.277344 230.335938 Z M 89.472656 233.175781 L 117.769531 233.53125 L 120.363281 230.273438 L 91.835938 229.914062 Z M 340.714844 236.332031 L 356.316406 236.53125 L 359.300781 233.28125 L 343.699219 233.082031 Z M 394.257812 233.71875 L 386.039062 233.617188 L 383.054688 236.867188 L 398.660156 237.0625 L 399.828125 235.792969 L 401.246094 234.246094 L 401.644531 233.8125 L 400.019531 233.792969 Z M 80.628906 206.992188 L 80.628906 206.996094 L 78.183594 210.359375 L 86.222656 231.046875 L 88.667969 227.679688 L 80.632812 206.996094 Z M 80.628906 206.992188"/><path fill="#92DCFF" d="M 20.726562 111.246094 L 19.929688 109.246094 L 13.84375 93.917969 L 11.75 96.210938 C 11.875 96.363281 12 96.519531 12.074219 96.710938 L 13.234375 99.644531 C 13.628906 100.640625 13.140625 101.769531 12.144531 102.164062 C 11.910156 102.257812 11.667969 102.300781 11.433594 102.300781 C 10.660156 102.300781 9.929688 101.835938 9.628906 101.074219 L 9.425781 100.566406 L 5.761719 108.28125 L 4.914062 110.0625 L 4.960938 110.171875 L 5.824219 112.175781 L 66.800781 253.707031 L 69.152344 251.332031 C 69.042969 251.191406 68.945312 251.03125 68.875 250.855469 L 45.976562 192.96875 C 45.582031 191.972656 46.070312 190.84375 47.066406 190.449219 C 48.066406 190.054688 49.191406 190.542969 49.585938 191.539062 L 72.070312 248.386719 L 74.289062 246.148438 L 21.519531 113.246094 Z M 40.472656 173.777344 C 41.46875 173.378906 42.59375 173.871094 42.988281 174.867188 L 45.3125 180.738281 C 45.707031 181.734375 45.21875 182.863281 44.222656 183.257812 C 43.988281 183.351562 43.746094 183.394531 43.507812 183.394531 C 42.734375 183.394531 42.003906 182.929688 41.703125 182.167969 L 39.382812 176.296875 C 38.988281 175.300781 39.476562 174.171875 40.472656 173.777344 Z M 38.875 164.464844 C 39.269531 165.460938 38.78125 166.589844 37.785156 166.984375 C 37.550781 167.078125 37.308594 167.121094 37.070312 167.121094 C 36.300781 167.121094 35.570312 166.65625 35.265625 165.894531 L 14.246094 112.75 L 13.457031 110.75 L 12.664062 108.75 L 12.371094 108.007812 C 11.976562 107.011719 12.464844 105.882812 13.460938 105.488281 C 14.457031 105.089844 15.585938 105.582031 15.976562 106.578125 L 16.953125 109.042969 L 17.742188 111.042969 L 18.535156 113.042969 Z M 286.5625 106.925781 L 286.554688 106.90625 L 288.597656 107.0625 L 303.40625 108.207031 L 304.269531 109.878906 L 304.378906 110.085938 L 305.332031 111.933594 L 305.421875 112.101562 L 306.398438 113.988281 L 312.738281 126.242188 L 295.292969 125.097656 L 289.144531 112.300781 L 288.496094 110.949219 L 288.164062 110.253906 L 287.53125 108.9375 L 287.179688 108.207031 Z M 263.902344 105.378906 L 263.796875 105.144531 L 282.082031 106.558594 L 282.109375 106.621094 L 282.660156 107.765625 L 283.078125 108.632812 L 283.644531 109.8125 L 284.042969 110.644531 L 284.628906 111.859375 L 290.847656 124.804688 L 272.167969 123.578125 L 266.019531 110.039062 L 265.726562 109.394531 L 265.09375 107.996094 L 264.816406 107.386719 L 264.164062 105.957031 Z M 351.390625 113.292969 L 350.722656 111.871094 L 380.710938 114.191406 L 385.15625 114.535156 L 390.472656 125.386719 L 392.804688 130.140625 L 393.496094 131.550781 L 391.3125 131.40625 L 388.808594 131.242188 L 386.589844 131.097656 L 384.375 130.953125 L 358.929688 129.277344 L 353.910156 118.636719 L 352.945312 116.589844 L 352.339844 115.300781 L 351.980469 114.542969 Z M 330.40625 111.859375 L 329.589844 110.234375 L 346.265625 111.527344 L 346.957031 112.988281 L 347.480469 114.105469 L 347.90625 115 L 348.445312 116.148438 L 349.410156 118.195312 L 354.5 128.988281 L 338.472656 127.933594 L 332.769531 116.566406 L 331.738281 114.515625 L 331.417969 113.875 L 330.707031 112.464844 Z M 37.546875 87.695312 L 37.519531 87.628906 L 58.570312 89.257812 L 58.773438 89.769531 L 59.433594 91.433594 L 61.019531 95.433594 L 65.722656 107.308594 L 66.6875 109.738281 L 66.820312 110.082031 L 61.015625 109.699219 L 45.757812 108.695312 L 43.621094 103.226562 L 41.722656 98.375 L 40.011719 94.003906 L 38.449219 90.003906 Z M 90.417969 92.867188 L 89.917969 91.683594 L 112.613281 93.441406 L 113.332031 95.105469 L 113.332031 95.109375 L 114.195312 97.117188 L 115.058594 99.121094 L 121.3125 113.660156 L 98.613281 112.171875 L 92.417969 97.578125 L 91.566406 95.574219 L 90.714844 93.566406 Z M 63.117188 90.195312 L 62.878906 89.589844 L 85.558594 91.347656 L 86.019531 92.433594 L 86.375 93.273438 L 88.078125 97.28125 L 94.277344 111.886719 L 74.539062 110.585938 L 71.109375 110.363281 L 70.621094 109.128906 L 65.308594 95.726562 L 63.722656 91.726562 Z M 240.761719 103.667969 L 240.605469 103.347656 L 259.378906 104.800781 L 259.507812 105.078125 L 259.707031 105.519531 L 260.417969 107.085938 L 260.632812 107.5625 L 261.332031 109.097656 L 261.5625 109.605469 L 267.773438 123.289062 L 249.738281 122.101562 L 242.789062 107.832031 L 242.757812 107.765625 L 241.808594 105.820312 L 241.757812 105.714844 L 240.828125 103.804688 Z M 193.59375 100.582031 L 193.21875 99.679688 L 213.371094 101.238281 L 213.6875 101.953125 L 214.152344 103.015625 L 214.570312 103.960938 L 215.050781 105.054688 L 215.453125 105.96875 L 221.734375 120.261719 L 201.25 118.914062 L 195.269531 104.589844 L 194.628906 103.058594 L 194.433594 102.585938 L 193.777344 101.023438 Z M 218.058594 102.253906 L 217.761719 101.578125 L 225.71875 102.195312 L 236.121094 103 L 236.226562 103.222656 L 236.363281 103.5 L 237.226562 105.273438 L 237.34375 105.515625 L 238.222656 107.320312 L 238.324219 107.527344 L 245.277344 121.808594 L 226.101562 120.550781 L 219.820312 106.265625 L 219.480469 105.488281 L 218.9375 104.257812 L 218.582031 103.449219 Z M 308.875 110.328125 L 307.960938 108.5625 L 325.070312 109.886719 L 325.910156 111.554688 L 326.917969 113.570312 L 327.171875 114.070312 L 328.199219 116.121094 L 333.980469 127.640625 L 317.265625 126.539062 L 311 114.4375 L 309.953125 112.410156 L 309.9375 112.382812 L 308.910156 110.394531 Z M 143.484375 96.105469 L 143.371094 95.820312 L 164.289062 97.441406 L 164.585938 98.167969 L 164.765625 98.617188 L 165.40625 100.199219 L 165.578125 100.621094 L 166.390625 102.621094 L 172.21875 117.007812 L 151.359375 115.636719 L 145.539062 101.199219 L 144.734375 99.199219 L 144.304688 98.136719 L 143.925781 97.195312 Z M 168.945312 98.59375 L 168.613281 97.777344 L 188.871094 99.34375 L 189.265625 100.289062 L 189.394531 100.59375 L 190.101562 102.292969 L 190.242188 102.628906 L 190.941406 104.296875 L 196.925781 118.632812 L 176.519531 117.289062 L 170.695312 102.914062 L 169.882812 100.914062 L 169.765625 100.625 L 169.070312 98.910156 Z M 117.683594 95.40625 L 116.984375 93.78125 L 130.078125 94.792969 L 139.054688 95.488281 L 139.128906 95.679688 L 139.625 96.902344 L 139.949219 97.710938 L 140.429688 98.90625 L 141.238281 100.90625 L 147.0625 115.355469 L 125.660156 113.949219 L 119.410156 99.417969 L 118.546875 97.414062 L 117.742188 95.539062 Z M 393.125 138.085938 L 395.511719 138.238281 L 396.425781 138.292969 L 401.730469 149.125 L 404.0625 153.878906 L 404.777344 155.339844 L 402.664062 155.234375 L 400.101562 155.101562 L 397.898438 154.988281 L 395.699219 154.875 L 381.960938 154.164062 L 376.210938 143.683594 L 375.089844 141.644531 L 374.859375 141.222656 L 373.96875 139.601562 L 373.75 139.203125 L 372.644531 137.183594 L 372.421875 136.777344 L 387.585938 137.734375 L 389.800781 137.875 L 390.738281 137.933594 L 392.011719 138.015625 Z M 375.03125 153.808594 L 360.785156 153.074219 L 355.417969 141.953125 L 354.441406 139.921875 L 354.417969 139.878906 L 353.460938 137.890625 L 353.449219 137.867188 L 352.480469 135.859375 L 352.460938 135.816406 L 352.3125 135.507812 L 367.835938 136.488281 L 368.050781 136.882812 L 369.160156 138.902344 L 369.332031 139.214844 L 370.265625 140.917969 L 370.265625 140.921875 L 370.449219 141.257812 L 371.570312 143.296875 L 374.902344 149.371094 L 377.402344 153.929688 L 377.28125 153.925781 Z M 115.78125 130.082031 L 120.191406 140.679688 L 96.882812 139.480469 L 89.953125 122.496094 L 89.136719 120.496094 L 88.976562 120.105469 L 88.820312 119.726562 L 88.457031 118.835938 L 91.683594 119.039062 L 98.390625 119.464844 L 111.71875 120.304688 L 112.289062 121.683594 L 112.433594 122.027344 L 113.265625 124.027344 L 113.742188 125.179688 L 114.761719 127.628906 Z M 139.304688 125.738281 L 143.882812 136.394531 L 144.945312 138.863281 L 146.003906 141.328125 L 146.304688 142.023438 L 124.484375 140.902344 L 120.753906 131.933594 L 118.714844 127.027344 L 117.585938 124.3125 L 116.753906 122.3125 L 116.644531 122.046875 L 116.035156 120.578125 L 137.671875 121.945312 L 138.441406 123.738281 L 138.5 123.867188 Z M 85.644531 122.214844 L 92.601562 139.257812 L 57.246094 137.4375 L 50.382812 119.894531 L 49.601562 117.898438 L 49.019531 116.40625 L 48.996094 116.34375 L 84.15625 118.566406 L 84.484375 119.363281 L 84.828125 120.210938 L 85.644531 122.210938 Z M 190 129.070312 L 197.035156 144.640625 L 175.851562 143.546875 L 168.699219 127.671875 L 168.097656 126.335938 L 167.792969 125.667969 L 167.183594 124.308594 L 166.953125 123.796875 L 188.222656 125.140625 L 188.65625 126.101562 L 189.09375 127.066406 L 189.570312 128.125 Z M 214.238281 130.664062 L 221.203125 145.882812 L 201.394531 144.863281 L 194.386719 129.359375 L 193.996094 128.496094 L 193.480469 127.355469 L 193.082031 126.46875 L 192.605469 125.417969 L 212.410156 126.667969 L 213.082031 128.136719 L 213.320312 128.660156 L 214.011719 130.164062 Z M 164.3125 127.382812 L 171.496094 143.324219 L 161.054688 142.785156 L 154.589844 142.453125 L 150.625 142.246094 L 149.972656 140.734375 L 148.914062 138.265625 L 143.652344 126.027344 L 143.652344 126.023438 L 142.882812 124.234375 L 142.789062 124.023438 L 142.015625 122.21875 L 142.472656 122.25 L 162.570312 123.519531 L 162.757812 123.941406 L 163.40625 125.378906 L 163.671875 125.964844 Z M 238.472656 132.257812 L 245.621094 147.140625 L 225.574219 146.109375 L 218.640625 130.953125 L 218.445312 130.53125 L 217.722656 128.949219 L 217.519531 128.507812 L 216.804688 126.945312 L 218.753906 127.070312 L 218.8125 127.074219 L 236.519531 128.191406 L 236.539062 128.238281 L 237.46875 130.167969 L 237.503906 130.246094 L 238.441406 132.199219 Z M 284.976562 136.078125 L 291.222656 149.492188 L 273.027344 148.554688 L 266.453125 134.535156 L 266.238281 134.082031 L 265.5 132.507812 L 265.296875 132.074219 L 264.546875 130.480469 L 264.355469 130.066406 L 264.300781 129.945312 L 282.660156 131.105469 L 282.738281 131.273438 L 283.085938 132.023438 L 283.671875 133.28125 L 284.03125 134.050781 L 284.609375 135.289062 Z M 261.988281 134.164062 L 268.632812 148.328125 L 250.035156 147.371094 L 242.929688 132.574219 L 242.917969 132.550781 L 241.953125 130.542969 L 241.953125 130.539062 L 240.988281 128.53125 L 240.980469 128.511719 L 240.957031 128.472656 L 259.878906 129.667969 L 259.929688 129.773438 L 260.085938 130.105469 L 260.875 131.785156 L 261.039062 132.132812 L 261.816406 133.792969 Z M 330.128906 139.84375 L 335.765625 151.785156 L 318.777344 150.910156 L 312.71875 138.390625 L 312.09375 137.097656 L 311.738281 136.363281 L 311.121094 135.085938 L 310.753906 134.332031 L 310.148438 133.074219 L 310.074219 132.925781 L 310.03125 132.835938 L 327.335938 133.929688 L 327.421875 134.109375 L 327.472656 134.214844 L 328.214844 135.785156 L 328.421875 136.222656 L 329.171875 137.816406 L 329.367188 138.230469 Z M 350.929688 141.578125 L 356.363281 152.847656 L 340.164062 152.011719 L 334.597656 140.214844 L 333.796875 138.523438 L 333.636719 138.1875 L 332.847656 136.515625 L 332.679688 136.160156 L 331.898438 134.503906 L 331.855469 134.410156 L 331.761719 134.207031 L 347.867188 135.226562 L 348.003906 135.511719 L 348.03125 135.566406 L 348.972656 137.515625 L 349 137.574219 L 349.949219 139.546875 L 349.96875 139.585938 Z M 307.640625 136.804688 L 308.226562 138.019531 L 314.355469 150.683594 L 295.609375 149.71875 L 289.429688 136.449219 L 289.023438 135.582031 L 288.484375 134.421875 L 288.089844 133.574219 L 287.542969 132.394531 L 287.152344 131.566406 L 287.070312 131.386719 L 292.574219 131.734375 L 305.582031 132.554688 L 305.617188 132.621094 L 305.695312 132.785156 L 306.261719 133.957031 L 306.667969 134.792969 L 307.246094 135.988281 Z M 404.121094 163.597656 L 405.386719 163.664062 L 409.214844 163.867188 L 414.519531 174.617188 L 416.847656 179.34375 L 417.566406 180.796875 L 415.46875 180.710938 L 412.15625 180.574219 L 409.964844 180.484375 L 407.777344 180.390625 L 392.96875 179.78125 L 390.730469 179.6875 L 388.492188 179.597656 L 379.109375 179.207031 L 373.742188 168.292969 L 372.75 166.273438 L 371.859375 164.460938 L 371.757812 164.253906 L 370.878906 162.464844 L 370.554688 161.808594 L 379.457031 162.28125 L 383.957031 162.523438 L 399.714844 163.363281 L 401.917969 163.480469 L 402.984375 163.535156 Z M 335.691406 177.417969 L 329.492188 165.054688 L 328.066406 162.203125 L 327.464844 161.011719 L 327.066406 160.207031 L 326.695312 159.472656 L 344.730469 160.433594 L 345.078125 161.136719 L 345.679688 162.34375 L 346.070312 163.132812 L 346.683594 164.363281 L 347.6875 166.386719 L 353.539062 178.152344 Z M 244.105469 173.636719 L 237.25 158.300781 L 236.894531 157.507812 L 236.347656 156.285156 L 236.003906 155.515625 L 235.601562 154.621094 L 252.410156 155.515625 L 254.070312 155.605469 L 254.085938 155.636719 L 254.484375 156.46875 L 255.058594 157.65625 L 255.449219 158.464844 L 256.03125 159.675781 L 263.140625 174.421875 Z M 313.832031 176.515625 L 307.828125 163.464844 L 306.898438 161.453125 L 306.738281 161.105469 L 305.972656 159.4375 L 305.824219 159.113281 L 305.46875 158.34375 L 322.234375 159.234375 L 322.609375 159.976562 L 323.972656 162.703125 L 324.988281 164.722656 L 331.261719 177.234375 Z M 290.949219 175.570312 L 284.613281 161.769531 L 283.769531 159.921875 L 283.691406 159.753906 L 282.855469 157.929688 L 282.765625 157.738281 L 282.480469 157.117188 L 301.085938 158.109375 L 301.445312 158.886719 L 301.550781 159.113281 L 302.363281 160.878906 L 302.476562 161.128906 L 303.402344 163.144531 L 309.476562 176.335938 Z M 267.539062 174.605469 L 260.5 160.003906 L 259.867188 158.691406 L 259.527344 157.984375 L 258.90625 156.695312 L 258.554688 155.964844 L 258.492188 155.839844 L 278.105469 156.882812 L 278.347656 157.414062 L 278.480469 157.703125 L 279.273438 159.429688 L 279.394531 159.699219 L 280.195312 161.445312 L 286.597656 175.390625 Z M 357.964844 178.335938 L 352.1875 166.714844 L 351.183594 164.695312 L 350.519531 163.363281 L 350.179688 162.671875 L 349.527344 161.363281 L 349.183594 160.671875 L 366.113281 161.574219 L 366.441406 162.238281 L 367.269531 163.925781 L 367.421875 164.230469 L 368.261719 165.945312 L 369.253906 167.964844 L 374.691406 179.027344 Z M 115.046875 168.308594 L 108.148438 150.875 L 107.363281 148.890625 L 107.324219 148.789062 L 106.917969 147.765625 L 128.894531 148.9375 L 129.367188 150.023438 L 129.539062 150.414062 L 130.238281 152.011719 L 137.765625 169.246094 Z M 168.636719 170.523438 L 161.066406 153.601562 L 160.664062 152.695312 L 160.179688 151.609375 L 159.761719 150.679688 L 159.714844 150.578125 L 172.71875 151.269531 L 179.214844 151.617188 L 181.203125 151.722656 L 181.449219 152.269531 L 181.546875 152.484375 L 181.648438 152.714844 L 182.351562 154.28125 L 182.542969 154.707031 L 182.660156 154.972656 L 190.039062 171.40625 Z M 194.371094 171.585938 L 187.769531 156.871094 L 186.898438 154.933594 L 186.75 154.605469 L 186.652344 154.382812 L 186.003906 152.941406 L 185.847656 152.589844 L 185.5625 151.953125 L 185.714844 151.960938 L 206.078125 153.046875 L 206.507812 153.996094 L 206.554688 154.105469 L 207.402344 155.988281 L 207.460938 156.121094 L 209.589844 160.847656 L 210.707031 163.335938 L 211.828125 165.824219 L 214.796875 172.425781 L 209.953125 172.226562 Z M 215.816406 165.238281 L 214.699219 162.75 L 211.859375 156.441406 L 211.757812 156.210938 L 210.957031 154.429688 L 210.863281 154.222656 L 210.4375 153.28125 L 231.25 154.386719 L 231.652344 155.292969 L 231.953125 155.964844 L 232.542969 157.285156 L 232.855469 157.976562 L 239.039062 171.808594 L 239.777344 173.457031 L 237.671875 173.371094 L 231.40625 173.113281 L 219.132812 172.605469 L 216.9375 167.726562 Z M 156.714844 153.378906 L 164.304688 170.34375 L 142.078125 169.425781 L 134.570312 152.234375 L 133.914062 150.734375 L 133.699219 150.246094 L 133.230469 149.167969 L 154.746094 150.3125 L 155.359375 150.347656 L 155.367188 150.359375 L 155.824219 151.386719 L 156.265625 152.371094 Z M 60.101562 145.332031 L 60.078125 145.269531 L 102.65625 147.539062 L 103.027344 148.476562 L 103.101562 148.667969 L 103.886719 150.65625 L 110.804688 168.136719 L 68.335938 166.382812 L 61.328125 148.460938 L 60.550781 146.476562 Z M 416.371094 188.214844 L 418.808594 188.304688 L 421.40625 188.40625 L 426.695312 199.203125 L 429.027344 203.960938 L 429.785156 205.507812 L 427.78125 205.453125 L 423.882812 205.351562 L 421.710938 205.292969 L 419.535156 205.238281 L 416.332031 205.152344 L 411.089844 194.746094 L 410.082031 192.742188 L 409.308594 191.210938 L 409.070312 190.742188 L 408.308594 189.226562 L 407.632812 187.882812 L 411.386719 188.023438 L 413.574219 188.109375 L 415.761719 188.191406 Z M 395.664062 204.609375 L 390.230469 193.546875 L 389.246094 191.546875 L 388.664062 190.359375 L 388.261719 189.542969 L 387.691406 188.375 L 387.066406 187.105469 L 392.523438 187.3125 L 394.753906 187.394531 L 396.988281 187.480469 L 403.199219 187.714844 L 403.871094 189.042969 L 404.59375 190.484375 L 404.871094 191.027344 L 405.605469 192.484375 L 406.613281 194.488281 L 411.925781 205.035156 L 406.074219 204.882812 L 403.855469 204.824219 L 401.632812 204.765625 Z M 353.535156 203.5 L 347.605469 191.09375 L 346.648438 189.09375 L 346.421875 188.617188 L 345.695312 187.09375 L 345.472656 186.632812 L 344.9375 185.507812 L 361.769531 186.148438 L 362.359375 187.332031 L 362.730469 188.074219 L 363.347656 189.316406 L 363.726562 190.078125 L 364.722656 192.082031 L 370.625 203.949219 L 358.136719 203.621094 Z M 375.015625 204.066406 L 369.183594 192.335938 L 368.1875 190.332031 L 367.773438 189.496094 L 367.191406 188.332031 L 366.785156 187.511719 L 366.191406 186.3125 L 382.65625 186.9375 L 383.273438 188.195312 L 383.8125 189.289062 L 384.25 190.179688 L 384.796875 191.289062 L 385.78125 193.292969 L 391.285156 204.492188 Z M 332.21875 202.9375 L 325.671875 189.835938 L 324.671875 187.832031 L 324.613281 187.714844 L 323.671875 185.828125 L 323.625 185.730469 L 323.097656 184.683594 L 340.554688 185.34375 L 341.085938 186.453125 L 341.269531 186.839844 L 342.03125 188.4375 L 342.226562 188.839844 L 343.183594 190.839844 L 349.179688 203.386719 Z M 213.101562 199.804688 L 205.804688 182.9375 L 205.75 182.808594 L 204.945312 180.945312 L 204.894531 180.832031 L 204.621094 180.199219 L 224.023438 180.933594 L 224.339844 181.632812 L 224.535156 182.070312 L 225.230469 183.613281 L 225.433594 184.066406 L 232.75 200.324219 Z M 261.917969 201.089844 L 254.933594 185.765625 L 254.507812 184.824219 L 254.023438 183.765625 L 253.601562 182.84375 L 253.238281 182.039062 L 255.632812 182.128906 L 261.832031 182.363281 L 266.53125 182.542969 L 268.03125 182.597656 L 273.0625 182.789062 L 273.125 182.921875 L 273.46875 183.660156 L 274.003906 184.820312 L 274.046875 184.917969 L 274.382812 185.644531 L 274.972656 186.917969 L 275.160156 187.324219 L 276.316406 189.824219 L 281.761719 201.613281 Z M 237.054688 200.4375 L 229.800781 184.320312 L 229.566406 183.792969 L 228.902344 182.320312 L 228.675781 181.8125 L 228.351562 181.097656 L 248.894531 181.875 L 249.253906 182.664062 L 249.644531 183.515625 L 250.15625 184.644531 L 250.554688 185.511719 L 257.601562 200.976562 Z M 187.246094 199.125 L 179.679688 181.734375 L 179.542969 181.429688 L 178.816406 179.753906 L 178.675781 179.433594 L 178.582031 179.210938 L 200.324219 180.035156 L 200.589844 180.652344 L 200.609375 180.695312 L 201.445312 182.632812 L 201.46875 182.691406 L 208.824219 199.691406 Z M 161.078125 198.4375 L 153.214844 180.640625 L 152.886719 179.894531 L 152.339844 178.664062 L 152.140625 178.210938 L 167.609375 178.796875 L 174.277344 179.046875 L 174.335938 179.183594 L 174.507812 179.578125 L 175.203125 181.179688 L 175.367188 181.554688 L 182.964844 199.011719 Z M 129.753906 197.613281 L 79.910156 196.300781 L 72.484375 177.308594 L 71.710938 175.335938 L 71.667969 175.222656 L 71.644531 175.164062 L 121.417969 177.046875 L 121.558594 177.390625 L 121.847656 178.109375 L 122.359375 179.367188 Z M 286.089844 201.726562 L 281.480469 191.746094 L 280.324219 189.246094 L 279.363281 187.171875 L 279.167969 186.742188 L 278.742188 185.824219 L 278.441406 185.171875 L 277.828125 183.839844 L 277.519531 183.171875 L 277.417969 182.953125 L 296.5625 183.679688 L 296.851562 184.285156 L 297.015625 184.632812 L 297.792969 186.285156 L 297.949219 186.617188 L 298.738281 188.285156 L 302.019531 195.246094 L 303.203125 197.761719 L 304.390625 200.273438 L 305.3125 202.230469 Z M 307.226562 197.183594 L 303.148438 188.539062 L 302.328125 186.796875 L 302.207031 186.539062 L 301.390625 184.8125 L 301.261719 184.539062 L 300.933594 183.84375 L 318.675781 184.515625 L 319.191406 185.550781 L 319.203125 185.570312 L 320.183594 187.535156 L 320.203125 187.574219 L 321.203125 189.578125 L 327.820312 202.824219 L 321.960938 202.667969 L 315.972656 202.511719 L 309.980469 202.355469 L 309.660156 202.347656 L 309.59375 202.210938 L 308.410156 199.699219 Z M 125.816406 177.566406 L 125.671875 177.207031 L 147.828125 178.046875 L 148.019531 178.484375 L 148.53125 179.644531 L 148.894531 180.464844 L 156.785156 198.324219 L 133.984375 197.722656 L 126.617188 179.542969 L 126.136719 178.355469 Z M 147.171875 208.746094 L 154.921875 226.824219 L 125.636719 226.457031 L 117.710938 207.96875 L 117.09375 206.527344 L 116.871094 206.003906 L 116.769531 205.773438 L 146.203125 206.480469 L 146.332031 206.78125 L 146.792969 207.859375 Z M 418.742188 220.0625 L 423.890625 230.207031 L 419.265625 230.148438 L 414.859375 230.09375 L 407.222656 229.996094 L 405.257812 226.039062 L 401.921875 219.304688 L 400.933594 217.316406 L 399.980469 215.394531 L 399.949219 215.328125 L 399.003906 213.425781 L 398.578125 212.566406 L 405.800781 212.742188 L 408.015625 212.792969 L 410.230469 212.847656 L 415.144531 212.964844 L 415.597656 213.863281 L 416.597656 215.832031 L 416.722656 216.082031 L 417.734375 218.070312 Z M 113.441406 207.859375 L 121.390625 226.402344 L 92.191406 226.035156 L 84.835938 207.105469 L 84.074219 205.140625 L 84.035156 205.042969 L 84.011719 204.980469 L 112.503906 205.667969 L 112.597656 205.894531 L 112.789062 206.332031 Z M 333.855469 216.253906 L 339.808594 229.148438 L 192.703125 227.300781 L 185.175781 209.746094 L 185.105469 209.578125 L 184.335938 207.78125 L 184.253906 207.597656 L 184.167969 207.398438 L 268.417969 209.429688 L 331.410156 210.949219 L 331.734375 211.65625 L 332.023438 212.28125 L 332.644531 213.625 L 332.941406 214.265625 Z M 183.527344 215.75 L 188.457031 227.246094 L 159.167969 226.878906 L 151.445312 208.855469 L 151.097656 208.050781 L 150.601562 206.890625 L 150.46875 206.585938 L 174.765625 207.171875 L 179.902344 207.292969 L 179.949219 207.402344 L 180.0625 207.667969 L 180.800781 209.386719 L 180.90625 209.632812 Z M 357.96875 223.382812 L 360.820312 229.414062 L 344.105469 229.203125 L 341.054688 222.589844 L 338.222656 216.449219 L 337.304688 214.460938 L 336.972656 213.738281 L 336.390625 212.476562 L 336.226562 212.121094 L 336.0625 211.769531 L 335.730469 211.050781 L 339.140625 211.132812 L 345.09375 211.277344 L 352.324219 211.453125 L 352.683594 212.207031 L 353.167969 213.230469 L 353.613281 214.175781 L 353.769531 214.507812 L 354.105469 215.214844 L 354.960938 217.023438 L 355.046875 217.203125 L 356.152344 219.539062 Z M 442.496094 230.441406 L 440.40625 230.414062 L 435.71875 230.355469 L 431.398438 230.300781 L 428.269531 230.261719 L 424.269531 222.375 L 423.195312 220.261719 L 422.1875 218.269531 L 421.175781 216.28125 L 421.007812 215.949219 L 420.007812 213.980469 L 419.550781 213.074219 L 423.285156 213.164062 L 425.457031 213.214844 L 427.628906 213.269531 L 428.222656 213.28125 L 430.683594 213.34375 L 433.628906 213.414062 L 439.335938 224.371094 L 441.753906 229.011719 Z M 397.488281 219.105469 L 402.863281 229.941406 L 394.980469 229.84375 L 389.21875 229.769531 L 386.179688 229.734375 L 385.535156 228.402344 L 384.3125 225.875 L 380.667969 218.351562 L 379.703125 216.363281 L 378.964844 214.84375 L 378.742188 214.378906 L 378.011719 212.875 L 377.617188 212.0625 L 394.191406 212.460938 L 394.613281 213.3125 L 395.515625 215.132812 L 395.589844 215.28125 L 396.503906 217.117188 Z M 381.5 228.972656 L 381.839844 229.679688 L 365.140625 229.46875 L 361.363281 221.476562 L 360.554688 219.769531 L 360.171875 218.960938 L 359.933594 218.460938 L 359.433594 217.398438 L 358.984375 216.445312 L 358.492188 215.414062 L 357.960938 214.289062 L 357.554688 213.425781 L 357.03125 212.324219 L 356.667969 211.558594 L 373.253906 211.957031 L 373.644531 212.761719 L 374.332031 214.179688 L 374.597656 214.726562 L 375.296875 216.167969 L 376.257812 218.15625 L 379.050781 223.914062 L 380.273438 226.441406 Z M 381.5 228.972656"/><path fill="#B685FF" d="M 364.847656 103.257812 L 424.097656 103.257812 L 424.097656 263 L 364.847656 263 L 364.847656 103.257812"/></svg>