<svg xmlns="http://www.w3.org/2000/svg" width="600" viewBox="0 0 600 375" height="375" version="1.0"><defs><clipPath id="a"><path d="M 220 81.210938 L 380 81.210938 L 380 241.710938 L 220 241.710938 Z M 220 81.210938"/></clipPath></defs><path fill="#FFF" d="M-60 -37.5H660V412.5H-60z"/><path fill="#FFF" d="M-60 -37.5H660V412.5H-60z"/><path fill="#FFF" d="M-60 -37.5H660V412.5H-60z"/><path fill="#33374D" d="M-60 -37.5H660V412.5H-60z"/><g clip-path="url(#a)"><path fill="#D3C8FF" d="M 359.984375 148.644531 L 346.679688 148.644531 C 343.003906 148.644531 340.039062 145.667969 340.039062 141.992188 C 340.039062 138.320312 343.003906 135.339844 346.679688 135.339844 L 359.984375 135.339844 C 363.65625 135.339844 366.621094 138.320312 366.621094 141.992188 C 366.621094 145.667969 363.65625 148.644531 359.984375 148.644531 Z M 359.984375 175.242188 L 346.679688 175.242188 C 343.003906 175.242188 340.039062 172.261719 340.039062 168.589844 C 340.039062 164.902344 343.003906 161.9375 346.679688 161.9375 L 359.984375 161.9375 C 363.65625 161.9375 366.621094 164.902344 366.621094 168.589844 C 366.621094 172.261719 363.65625 175.242188 359.984375 175.242188 Z M 366.421875 208.476562 C 366.421875 212.136719 363.445312 215.113281 359.769531 215.113281 L 346.578125 215.113281 C 342.90625 215.113281 339.925781 212.136719 339.925781 208.476562 L 339.925781 195.285156 C 339.925781 191.609375 342.90625 188.632812 346.578125 188.632812 L 359.769531 188.632812 C 363.445312 188.632812 366.421875 191.609375 366.421875 195.285156 Z M 326.734375 208.476562 C 326.734375 212.136719 323.757812 215.113281 320.097656 215.113281 L 240.324219 215.113281 C 236.648438 215.113281 233.671875 212.136719 233.671875 208.476562 L 233.671875 141.992188 C 233.671875 138.320312 236.648438 135.339844 240.324219 135.339844 L 320.097656 135.339844 C 323.757812 135.339844 326.734375 138.320312 326.734375 141.992188 Z M 379.898438 135.339844 C 379.898438 128.035156 373.984375 122.050781 366.59375 122.050781 L 312.550781 122.050781 L 341.316406 93.285156 C 343.914062 90.6875 343.914062 86.476562 341.316406 83.878906 C 338.722656 81.285156 334.523438 81.285156 331.925781 83.878906 L 300.125 115.667969 L 268.324219 83.878906 C 265.726562 81.285156 261.53125 81.285156 258.917969 83.878906 C 256.324219 86.476562 256.324219 90.6875 258.917969 93.285156 L 287.699219 122.050781 L 233.644531 122.050781 C 226.335938 122.050781 220.351562 128.035156 220.351562 135.339844 L 220.351562 215.113281 C 220.351562 222.433594 226.335938 228.40625 233.644531 228.40625 L 240.296875 228.40625 L 240.296875 235.058594 C 240.296875 238.714844 243.289062 241.710938 246.949219 241.710938 C 250.664062 241.710938 253.585938 238.714844 253.585938 235.058594 L 253.585938 228.40625 L 346.648438 228.40625 L 346.648438 235.058594 C 346.648438 238.714844 349.644531 241.710938 353.304688 241.710938 C 357.035156 241.710938 359.957031 238.714844 359.957031 235.058594 L 359.957031 228.40625 L 366.59375 228.40625 C 373.984375 228.40625 379.898438 222.433594 379.898438 215.113281 L 379.898438 135.339844"/></g><g fill="#D3C8FF"><g><g><path d="M 19.75 0 L 18.390625 -5.125 L 9.5 -5.125 L 8.125 0 L 0 0 L 8.921875 -27.46875 L 18.796875 -27.46875 L 27.828125 0 Z M 16.859375 -11.1875 L 15.6875 -15.6875 C 15.40625 -16.6875 15.066406 -17.976562 14.671875 -19.5625 C 14.285156 -21.144531 14.03125 -22.28125 13.90625 -22.96875 C 13.789062 -22.332031 13.566406 -21.28125 13.234375 -19.8125 C 12.910156 -18.351562 12.179688 -15.476562 11.046875 -11.1875 Z M 16.859375 -11.1875" transform="translate(228.437 285.749)"/></g></g></g><g fill="#D3C8FF"><g><g><path d="M 18.90625 -6.515625 C 18.90625 -4.242188 18.128906 -2.523438 16.578125 -1.359375 C 15.035156 -0.203125 12.816406 0.375 9.921875 0.375 C 8.347656 0.375 6.976562 0.289062 5.8125 0.125 C 4.65625 -0.0390625 3.472656 -0.351562 2.265625 -0.8125 L 2.265625 -6.65625 C 3.398438 -6.15625 4.644531 -5.742188 6 -5.421875 C 7.351562 -5.097656 8.5625 -4.9375 9.625 -4.9375 C 11.207031 -4.9375 12 -5.300781 12 -6.03125 C 12 -6.40625 11.773438 -6.738281 11.328125 -7.03125 C 10.890625 -7.320312 9.601562 -7.890625 7.46875 -8.734375 C 5.519531 -9.535156 4.160156 -10.441406 3.390625 -11.453125 C 2.617188 -12.472656 2.234375 -13.765625 2.234375 -15.328125 C 2.234375 -17.296875 2.992188 -18.828125 4.515625 -19.921875 C 6.035156 -21.023438 8.1875 -21.578125 10.96875 -21.578125 C 12.363281 -21.578125 13.675781 -21.421875 14.90625 -21.109375 C 16.132812 -20.804688 17.410156 -20.363281 18.734375 -19.78125 L 16.75 -15.0625 C 15.78125 -15.5 14.75 -15.867188 13.65625 -16.171875 C 12.570312 -16.484375 11.6875 -16.640625 11 -16.640625 C 9.800781 -16.640625 9.203125 -16.347656 9.203125 -15.765625 C 9.203125 -15.398438 9.410156 -15.085938 9.828125 -14.828125 C 10.253906 -14.578125 11.460938 -14.054688 13.453125 -13.265625 C 14.941406 -12.660156 16.050781 -12.0625 16.78125 -11.46875 C 17.507812 -10.882812 18.046875 -10.195312 18.390625 -9.40625 C 18.734375 -8.613281 18.90625 -7.648438 18.90625 -6.515625 Z M 18.90625 -6.515625" transform="translate(256.268 285.749)"/></g></g></g><g fill="#D3C8FF"><g><g><path d="M 18.90625 -6.515625 C 18.90625 -4.242188 18.128906 -2.523438 16.578125 -1.359375 C 15.035156 -0.203125 12.816406 0.375 9.921875 0.375 C 8.347656 0.375 6.976562 0.289062 5.8125 0.125 C 4.65625 -0.0390625 3.472656 -0.351562 2.265625 -0.8125 L 2.265625 -6.65625 C 3.398438 -6.15625 4.644531 -5.742188 6 -5.421875 C 7.351562 -5.097656 8.5625 -4.9375 9.625 -4.9375 C 11.207031 -4.9375 12 -5.300781 12 -6.03125 C 12 -6.40625 11.773438 -6.738281 11.328125 -7.03125 C 10.890625 -7.320312 9.601562 -7.890625 7.46875 -8.734375 C 5.519531 -9.535156 4.160156 -10.441406 3.390625 -11.453125 C 2.617188 -12.472656 2.234375 -13.765625 2.234375 -15.328125 C 2.234375 -17.296875 2.992188 -18.828125 4.515625 -19.921875 C 6.035156 -21.023438 8.1875 -21.578125 10.96875 -21.578125 C 12.363281 -21.578125 13.675781 -21.421875 14.90625 -21.109375 C 16.132812 -20.804688 17.410156 -20.363281 18.734375 -19.78125 L 16.75 -15.0625 C 15.78125 -15.5 14.75 -15.867188 13.65625 -16.171875 C 12.570312 -16.484375 11.6875 -16.640625 11 -16.640625 C 9.800781 -16.640625 9.203125 -16.347656 9.203125 -15.765625 C 9.203125 -15.398438 9.410156 -15.085938 9.828125 -14.828125 C 10.253906 -14.578125 11.460938 -14.054688 13.453125 -13.265625 C 14.941406 -12.660156 16.050781 -12.0625 16.78125 -11.46875 C 17.507812 -10.882812 18.046875 -10.195312 18.390625 -9.40625 C 18.734375 -8.613281 18.90625 -7.648438 18.90625 -6.515625 Z M 18.90625 -6.515625" transform="translate(276.706 285.749)"/></g></g></g><g fill="#D3C8FF"><g><g><path d="M 9.875 0 L 2.5625 0 L 2.5625 -21.203125 L 9.875 -21.203125 Z M 2.375 -26.484375 C 2.375 -27.578125 2.675781 -28.390625 3.28125 -28.921875 C 3.894531 -29.460938 4.882812 -29.734375 6.25 -29.734375 C 7.613281 -29.734375 8.601562 -29.457031 9.21875 -28.90625 C 9.84375 -28.363281 10.15625 -27.554688 10.15625 -26.484375 C 10.15625 -24.335938 8.851562 -23.265625 6.25 -23.265625 C 3.664062 -23.265625 2.375 -24.335938 2.375 -26.484375 Z M 2.375 -26.484375" transform="translate(297.143 285.749)"/></g></g></g><g fill="#D3C8FF"><g><g><path d="M 18.90625 -6.515625 C 18.90625 -4.242188 18.128906 -2.523438 16.578125 -1.359375 C 15.035156 -0.203125 12.816406 0.375 9.921875 0.375 C 8.347656 0.375 6.976562 0.289062 5.8125 0.125 C 4.65625 -0.0390625 3.472656 -0.351562 2.265625 -0.8125 L 2.265625 -6.65625 C 3.398438 -6.15625 4.644531 -5.742188 6 -5.421875 C 7.351562 -5.097656 8.5625 -4.9375 9.625 -4.9375 C 11.207031 -4.9375 12 -5.300781 12 -6.03125 C 12 -6.40625 11.773438 -6.738281 11.328125 -7.03125 C 10.890625 -7.320312 9.601562 -7.890625 7.46875 -8.734375 C 5.519531 -9.535156 4.160156 -10.441406 3.390625 -11.453125 C 2.617188 -12.472656 2.234375 -13.765625 2.234375 -15.328125 C 2.234375 -17.296875 2.992188 -18.828125 4.515625 -19.921875 C 6.035156 -21.023438 8.1875 -21.578125 10.96875 -21.578125 C 12.363281 -21.578125 13.675781 -21.421875 14.90625 -21.109375 C 16.132812 -20.804688 17.410156 -20.363281 18.734375 -19.78125 L 16.75 -15.0625 C 15.78125 -15.5 14.75 -15.867188 13.65625 -16.171875 C 12.570312 -16.484375 11.6875 -16.640625 11 -16.640625 C 9.800781 -16.640625 9.203125 -16.347656 9.203125 -15.765625 C 9.203125 -15.398438 9.410156 -15.085938 9.828125 -14.828125 C 10.253906 -14.578125 11.460938 -14.054688 13.453125 -13.265625 C 14.941406 -12.660156 16.050781 -12.0625 16.78125 -11.46875 C 17.507812 -10.882812 18.046875 -10.195312 18.390625 -9.40625 C 18.734375 -8.613281 18.90625 -7.648438 18.90625 -6.515625 Z M 18.90625 -6.515625" transform="translate(309.608 285.749)"/></g></g></g><g fill="#D3C8FF"><g><g><path d="M 12.90625 -5.40625 C 13.894531 -5.40625 15.078125 -5.648438 16.453125 -6.140625 L 16.453125 -0.8125 C 15.460938 -0.382812 14.519531 -0.0820312 13.625 0.09375 C 12.738281 0.28125 11.695312 0.375 10.5 0.375 C 8.039062 0.375 6.269531 -0.222656 5.1875 -1.421875 C 4.101562 -2.628906 3.5625 -4.484375 3.5625 -6.984375 L 3.5625 -15.71875 L 0.984375 -15.71875 L 0.984375 -18.703125 L 4.25 -21 L 6.140625 -25.453125 L 10.921875 -25.453125 L 10.921875 -21.203125 L 16.125 -21.203125 L 16.125 -15.71875 L 10.921875 -15.71875 L 10.921875 -7.46875 C 10.921875 -6.09375 11.582031 -5.40625 12.90625 -5.40625 Z M 12.90625 -5.40625" transform="translate(330.046 285.749)"/></g></g></g><g fill="#D3C8FF"><g><g><path d="M 16.359375 0 L 14.953125 -2.8125 L 14.796875 -2.8125 C 13.816406 -1.582031 12.8125 -0.742188 11.78125 -0.296875 C 10.757812 0.148438 9.441406 0.375 7.828125 0.375 C 5.828125 0.375 4.253906 -0.222656 3.109375 -1.421875 C 1.960938 -2.617188 1.390625 -4.300781 1.390625 -6.46875 C 1.390625 -8.726562 2.171875 -10.410156 3.734375 -11.515625 C 5.304688 -12.617188 7.585938 -13.238281 10.578125 -13.375 L 14.109375 -13.5 L 14.109375 -13.796875 C 14.109375 -15.535156 13.25 -16.40625 11.53125 -16.40625 C 9.976562 -16.40625 8.015625 -15.882812 5.640625 -14.84375 L 3.515625 -19.671875 C 5.984375 -20.941406 9.101562 -21.578125 12.875 -21.578125 C 15.59375 -21.578125 17.695312 -20.898438 19.1875 -19.546875 C 20.675781 -18.203125 21.421875 -16.320312 21.421875 -13.90625 L 21.421875 0 Z M 10.921875 -4.796875 C 11.816406 -4.796875 12.578125 -5.070312 13.203125 -5.625 C 13.835938 -6.1875 14.15625 -6.921875 14.15625 -7.828125 L 14.15625 -9.46875 L 12.46875 -9.390625 C 10.0625 -9.304688 8.859375 -8.421875 8.859375 -6.734375 C 8.859375 -5.441406 9.546875 -4.796875 10.921875 -4.796875 Z M 10.921875 -4.796875" transform="translate(347.676 285.749)"/></g></g></g></svg>